<svg width="398.9699920654298" height="57.91696152357285" viewBox="0 0 369.91304347826093 53.69887443235246" class="css-1j8o68f"><defs id="SvgjsDefs1957"></defs><g id="SvgjsG1958" featurekey="S6ay6y-0" transform="matrix(0.8454106450080872,0,0,0.8454106450080872,-6.340578903898525,-7.144084202494598)" fill="#243b95"><g xmlns="http://www.w3.org/2000/svg"><path d="M67.45,38.21c2.386-0.735,4.701-1.243,6.837-1.59c-0.093-3.854-0.606-7.039-0.977-8.869   c-1.529,0.566-3.999,1.585-6.803,3.117c0.465,1.814,0.781,3.701,0.896,5.643C67.438,37.08,67.453,37.646,67.45,38.21z"></path><path d="M76.453,53.136c2.3-4.647,3.571-9.216,4.185-12.318c-8.436,0.364-26.668-1.547-32.941,23.198   c-0.422,1.665-1.195,4.001-1.822,5.779C47.808,69.527,66.508,73.23,76.453,53.136z"></path><path d="M80.278,52.645c-0.294,0.651-0.603,1.306-0.937,1.962c-3.69,7.25-8.723,12.306-15.028,15.132   C82.337,71.826,97.5,60.68,97.5,60.68S90.425,55.336,80.278,52.645z"></path><path d="M49.97,49.317c3.307-3.979,7.621-7.131,12.923-9.428c0.425-0.184,0.849-0.358,1.271-0.524   c0.051-0.875,0.057-1.757,0.005-2.646c-0.687-11.733-9.869-21.63-13.045-24.72c-2.019,2.018-6.491,6.902-9.557,13.308   c-2.413,5.043-3.47,9.912-3.183,14.584C43.182,42.243,47.052,45.395,49.97,49.317z"></path><path d="M22.501,53.768c-0.073-0.14-0.141-0.277-0.211-0.416c-8.953,2.861-8.482,2.56-14.79,7.328c0,0,14.662,10.778,32.285,9.155   C32.494,67.09,26.692,61.702,22.501,53.768z"></path><path d="M21.002,40.168c0.672,3.045,1.968,7.545,4.365,12.084c4.217,7.985,10.187,13.117,17.759,15.273   c0.175-0.484,1.199-8.642,4.928-14.881C42.058,41.77,27.632,40.313,21.002,40.168z"></path><path d="M36.04,31.073c-2.962-1.652-5.584-2.733-7.183-3.324c-0.36,1.796-0.86,4.894-0.97,8.638   c2.323,0.475,4.782,1.146,7.246,2.09C35.123,36.046,35.42,33.574,36.04,31.073z"></path></g></g><g id="SvgjsG1959" featurekey="j5pGhi-0" transform="matrix(2.818411111831665,0,0,2.818411111831665,92.77844953077883,-12.192447237149963)" fill="#243b95"><path d="M15.723 7.4510000000000005 l-1.123 1.0645 q-1.2109375 -1.19140625 -2.651367188 -1.806640625 t-2.8174 -0.61523 q-1.69921875 0 -3.237304688 0.83984375 t-2.3877 2.2656 t-0.84961 2.7148 q0 1.640625 0.87890625 3.110351563 t2.4268 2.3047 t3.3838 0.83496 q2.2265625 0 3.774414063 -1.259765625 t1.8408 -3.2617 l-4.6191 0 l0 -1.3965 l6.2305 0 q-0.01953125 3.359375 -1.987304688 5.33203125 t-5.2881 1.9727 q-4.00390625 0 -6.34765625 -2.734375 q-1.806640625 -2.109375 -1.806640625 -4.873046875 q0 -2.060546875 1.030273438 -3.671875 t2.8369 -2.6172 t4.082 -1.0059 q1.8359375 0 3.45703125 0.6689453125 t3.1738 2.1338 z M18.56449375 14.541 l0 -1.2891 q0.15625 -0.966796875 0.44921875 -1.572265625 q0.68359375 -1.6796875 1.8359375 -2.4609375 t1.9141 -0.78125 q0.56640625 0 1.2109375 0.37109375 l-0.71289 1.1523 q-0.908203125 -0.33203125 -1.801757813 0.537109375 t-1.2354 1.8945 q-0.25390625 0.908203125 -0.25390625 3.408203125 l0 3.623 l-1.4063 0 l0 -4.8828 z M29.843753125 8.203 q2.470703125 0 4.1015625 1.787109375 q1.474609375 1.640625 1.474609375 3.876953125 t-1.5625 3.9111 t-4.0137 1.6748 q-2.4609375 0 -4.018554688 -1.674804688 t-1.5576 -3.9111 q0 -2.2265625 1.474609375 -3.8671875 q1.630859375 -1.796875 4.1015625 -1.796875 z M29.843753125 9.551 q-1.708984375 0 -2.939453125 1.26953125 t-1.2305 3.0664 q0 1.162109375 0.5615234375 2.172851563 t1.5186 1.5527 t2.0898 0.54199 q1.15234375 0 2.104492188 -0.5419921875 t1.5088 -1.5527 t0.55664 -2.1729 q0 -1.796875 -1.23046875 -3.06640625 t-2.9395 -1.2695 z M48.34978125 10.7031 l-1.0938 0.68359 q-1.416015625 -1.89453125 -3.8671875 -1.89453125 q-1.962890625 0 -3.256835938 1.259765625 t-1.2939 3.0664 q0 1.171875 0.595703125 2.211914063 t1.6309 1.6064 t2.3242 0.56641 q2.373046875 0 3.8671875 -1.875 l1.0938 0.71289 q-0.771484375 1.15234375 -2.065429688 1.782226563 t-2.9541 0.62988 q-2.529296875 0 -4.204101563 -1.611328125 t-1.6748 -3.916 q0 -1.5625 0.7861328125 -2.895507813 t2.1484 -2.0801 t3.0615 -0.74707 q1.0546875 0 2.045898438 0.322265625 t1.6846 0.84473 t1.1719 1.333 z M60.000125 15.6348 l1.1523 0.61523 q-0.556640625 1.123046875 -1.30859375 1.806640625 t-1.6895 1.04 t-2.1191 0.35645 q-2.6171875 0 -4.091796875 -1.713867188 t-1.4746 -3.8721 q0 -2.041015625 1.25 -3.6328125 q1.58203125 -2.03125 4.248046875 -2.03125 q2.724609375 0 4.365234375 2.080078125 q1.162109375 1.46484375 1.171875 3.65234375 l-9.6191 0 q0.0390625 1.875 1.19140625 3.071289063 t2.8418 1.1963 q0.8203125 0 1.591796875 -0.2880859375 t1.3135 -0.75684 t1.1768 -1.5234 z M60.000125 12.7539 q-0.2734375 -1.103515625 -0.80078125 -1.762695313 t-1.3965 -1.0645 t-1.8262 -0.40527 q-1.572265625 0 -2.705078125 1.015625 q-0.8203125 0.7421875 -1.240234375 2.216796875 l7.9688 0 z M63.5449625 14.541 l0 -1.2891 q0.15625 -0.966796875 0.44921875 -1.572265625 q0.68359375 -1.6796875 1.8359375 -2.4609375 t1.9141 -0.78125 q0.56640625 0 1.2109375 0.37109375 l-0.71289 1.1523 q-0.908203125 -0.33203125 -1.801757813 0.537109375 t-1.2354 1.8945 q-0.25390625 0.908203125 -0.25390625 3.408203125 l0 3.623 l-1.4063 0 l0 -4.8828 z M70.60545 4.3260000000000005 q0.46875 0 0.8056640625 0.33203125 t0.33691 0.80078 t-0.33691 0.80566 t-0.80566 0.33691 t-0.80078 -0.33691 t-0.33203 -0.80566 t0.33203 -0.80078 t0.80078 -0.33203 z M69.92185 8.73 l1.377 0 l0 10.713 l-1.377 0 l0 -10.713 z M84.7651875 17.0117 q0 2.255859375 -0.400390625 3.30078125 q-0.537109375 1.474609375 -1.879882813 2.270507813 t-3.2178 0.7959 q-1.38671875 0 -2.48046875 -0.390625 t-1.7871 -1.0449 t-1.2695 -1.9141 l1.4941 0 q0.615234375 1.064453125 1.577148438 1.572265625 t2.3975 0.50781 q1.40625 0 2.377929688 -0.52734375 t1.3818 -1.3184 t0.41016 -2.5684 l0 -0.54688 q-0.771484375 0.986328125 -1.899414063 1.513671875 t-2.3779 0.52734 q-1.474609375 0 -2.778320313 -0.732421875 t-2.0117 -1.9775 t-0.70801 -2.7295 t0.7373 -2.7686 t2.0459 -2.0313 t2.7441 -0.74707 q1.2109375 0 2.197265625 0.37109375 q0.830078125 0.302734375 1.962890625 1.162109375 q0.95703125 0.791015625 1.50390625 3.017578125 q-0.01953125 0.29296875 -0.01953125 4.2578125 z M79.2968875 9.531 q-1.171875 0 -2.172851563 0.56640625 t-1.5723 1.5625 t-0.57129 2.1582 q0 1.767578125 1.181640625 2.919921875 t3.0566 1.1523 q1.9140625 0 3.06640625 -1.142578125 t1.1523 -3.0078 q0 -1.2109375 -0.5322265625 -2.158203125 t-1.5039 -1.499 t-2.1045 -0.55176 z M92.753909375 8.203 q2.470703125 0 4.1015625 1.787109375 q1.474609375 1.640625 1.474609375 3.876953125 t-1.5625 3.9111 t-4.0137 1.6748 q-2.4609375 0 -4.018554688 -1.674804688 t-1.5576 -3.9111 q0 -2.2265625 1.474609375 -3.8671875 q1.630859375 -1.796875 4.1015625 -1.796875 z M92.753909375 9.551 q-1.708984375 0 -2.939453125 1.26953125 t-1.2305 3.0664 q0 1.162109375 0.5615234375 2.172851563 t1.5186 1.5527 t2.0898 0.54199 q1.15234375 0 2.104492188 -0.5419921875 t1.5088 -1.5527 t0.55664 -2.1729 q0 -1.796875 -1.23046875 -3.06640625 t-2.9395 -1.2695 z"></path></g></svg>